<svg xmlns="http://www.w3.org/2000/svg" preserveAspectRatio="xMidYMid" viewBox="0 0 23.47 20.719"><defs><style>.cls-1{fill:#000;fill-rule:evenodd}</style></defs><path d="M21.284 20.732H2.211c-1.173 0-2.2-1.038-2.2-2.223V2.213c0-1.185 1.027-2.222 2.2-2.222H8.08c1.174 0 2.2 1.037 2.2 2.222v1.481c0 .445.294.741.734.741h10.27c1.173 0 2.2 1.037 2.2 2.223v11.851c0 1.185-1.027 2.223-2.2 2.223zm.734-14.074c0-.445-.294-.742-.734-.742h-10.27c-1.174 0-2.2-1.036-2.2-2.222V2.213c0-.445-.294-.741-.734-.741H2.211c-.439 0-.733.296-.733.741v16.296c0 .445.294.741.733.741h19.073c.44 0 .733-.296.733-.741h.001V6.658zm-7.336 6.962h-2.201v2.223c0 .444-.294.741-.734.741s-.733-.297-.733-.741V13.62H8.813c-.44 0-.733-.296-.733-.74 0-.445.293-.741.733-.741h2.201V9.917c0-.445.293-.741.733-.741.441 0 .734.296.734.741v2.222h2.201c.44 0 .733.296.733.741 0 .444-.293.74-.733.74z" class="cls-1"/></svg>