<svg xmlns="http://www.w3.org/2000/svg" preserveAspectRatio="xMidYMid" viewBox="0 0 17.97 17.969"><defs><style>.cls-1{fill:#000;fill-rule:evenodd}</style></defs><path d="M8.149 5.28l-.002.002a.833.833 0 0 0-.567-.224.837.837 0 1 0-.567 1.459l-.001.003L9.7 8.984l-2.688 2.464.001.002a.836.836 0 0 0-.274.618c0 .464.377.841.841.841.22 0 .417-.086.567-.223l.002.002 3.365-3.084a.844.844 0 0 0 0-1.241L8.149 5.28zM8.982.011A8.972 8.972 0 0 0 .01 8.984 8.973 8.973 0 1 0 8.982.011zm0 16.263c-4.019 0-7.29-3.271-7.29-7.29 0-4.02 3.271-7.291 7.29-7.291 4.02 0 7.291 3.271 7.291 7.291 0 4.019-3.271 7.29-7.291 7.29z" class="cls-1"/></svg>