<svg xmlns="http://www.w3.org/2000/svg" preserveAspectRatio="xMidYMid" viewBox="0 0 14 15"><defs><style>.cls-1{fill:#000;fill-rule:evenodd}</style></defs><path d="M13.035 12.356a33.231 33.231 0 0 1-6.028.546h-.011a33.237 33.237 0 0 1-5.931-.53l-.181-.034a1.172 1.172 0 0 1-.89-1.124c0-.3.118-.573.312-.78l.005-.006.086-.081.001-.001.091-.082.043-.037c.441-.371.906-.707.996-1.705.413-4.601.835-6.441 3.95-7.465.483-.158.649-.381.761-.58L6.29.384l.001-.001a.792.792 0 0 1 .411-.326.889.889 0 0 1 .294-.046.875.875 0 0 1 .293.046.795.795 0 0 1 .413.327c.016.03.032.062.05.093.113.199.279.422.761.58 3.115 1.024 3.537 2.864 3.95 7.465.09.998.555 1.334.996 1.705l.042.037c.031.027.06.052.088.079l.005.003c.034.031.066.063.098.094.189.206.305.477.305.774 0 .564-.413 1.033-.962 1.142zm-7.751 1.208l.034.003c.002-.002.002-.002.002 0 .555.027 1.114.041 1.676.041h.011c.554 0 1.105-.014 1.652-.04l.06-.003c.141.008.252.12.252.258 0 .041-.01.079-.027.113l-.027.043a2.283 2.283 0 0 1-1.921 1.02 2.272 2.272 0 0 1-1.917-1.014l-.001-.003-.031-.046a.25.25 0 0 1-.026-.113c0-.141.117-.256.263-.259z" class="cls-1"/></svg>