<svg xmlns="http://www.w3.org/2000/svg" preserveAspectRatio="xMidYMid" viewBox="0 0 11 13"><defs><style>.cls-1{fill:#000;fill-rule:evenodd}</style></defs><path d="M10.385 13H.615A.624.624 0 0 1 0 12.369v-1.634c0-.348.276-.632.615-.632h9.77c.339 0 .615.284.615.632v1.634a.624.624 0 0 1-.615.631zm-.832-3.788H1.411a.624.624 0 0 1-.615-.631V7.356c0-.348.276-.632.615-.632h8.142c.339 0 .614.284.614.632v1.225a.623.623 0 0 1-.614.631zM8.358 5.908H2.641a.625.625 0 0 1-.615-.632v-.817c0-.348.276-.631.615-.631h2.316v-1.3a.56.56 0 0 1 .224-.45c-.296-.158-.501-.541-.501-1C4.68.49 5.267 0 5.489 0c.198 0 .808.485.808 1.078 0 .452-.198.83-.488.993a.561.561 0 0 1 .234.457v1.3h2.315c.339 0 .615.283.615.631v.817a.625.625 0 0 1-.615.632z" class="cls-1"/></svg>