<svg xmlns="http://www.w3.org/2000/svg" preserveAspectRatio="xMidYMid" viewBox="0 0 24.75 25"><defs><style>.cls-1{fill:#000;fill-rule:evenodd}</style></defs><path d="M12.365 0C5.529 0-.013 4.897-.013 10.937c0 3.452 1.815 6.527 4.642 8.53V25l6.338-3.2c.459.047.925.075 1.398.075 6.836 0 12.379-4.897 12.379-10.938C24.744 4.897 19.201 0 12.365 0zm0 20.312c-.708 0-1.4-.062-2.072-.175l.525.177-4.642 2.342V18.75l.574.194c-3.122-1.645-5.216-4.61-5.216-8.007 0-5.178 4.849-9.375 10.831-9.375 5.982 0 10.832 4.197 10.832 9.375 0 5.179-4.85 9.375-10.832 9.375z" class="cls-1"/></svg>