<svg xmlns="http://www.w3.org/2000/svg" preserveAspectRatio="xMidYMid" viewBox="0 0 20 20"><defs><style>.cls-1{fill:#000;fill-rule:evenodd}</style></defs><path d="M20 9.982c0 1.727-1.362 3.128-3.043 3.128h-3.752V8.838c0-.953-.72-1.741-1.647-1.741H8.431c-.927 0-1.681.788-1.681 1.741v4.272H4.11C1.84 13.11 0 11.218 0 8.886c0-1.752 1.038-3.254 2.516-3.894C2.57 2.226 4.768 0 7.473 0c1.721 0 3.236.901 4.126 2.269a3.823 3.823 0 0 1 1.64-.368c2.173 0 3.934 1.81 3.934 4.043 0 .314-.036.62-.102.913C18.699 6.919 20 8.294 20 9.982zM6.772 14.35c.187-.083.399-.134.628-.134h.359V8.838c0-.38.302-.704.672-.704h3.116c.37 0 .65.324.65.704v5.378h.403c.229 0 .441.051.628.134.282.124.505.343.634.628.215.472.122 1.019-.247 1.473l-2.41 2.959c-.305.375-.744.59-1.205.59-.461 0-.9-.215-1.205-.59l-2.41-2.958c-.369-.454-.462-1.005-.247-1.478.129-.284.352-.5.634-.624zm2.668 2.519v.8c0 .273.239.494.504.494a.508.508 0 0 0 .504-.494v-.758c.337-.17.51-.496.51-.87a.983.983 0 0 0-.969-.996.983.983 0 0 0-.969.996c0 .345.151.65.42.828z" class="cls-1"/></svg>