<svg xmlns="http://www.w3.org/2000/svg" preserveAspectRatio="xMidYMid" viewBox="0 0 15 15"><defs><style>.cls-1{fill:#000;fill-rule:evenodd}</style></defs><path d="M12.678 15H6.273a.314.314 0 0 1-.315-.313v-.941c0-.173.141-.314.315-.314h6.405a.75.75 0 0 0 .75-.748V2.316a.75.75 0 0 0-.75-.748H6.273a.315.315 0 0 1-.315-.314v-.94c0-.174.141-.314.315-.314h6.405A2.321 2.321 0 0 1 15 2.316v10.368A2.321 2.321 0 0 1 12.678 15zM6.138 3.657l6.201 3.572a.313.313 0 0 1 0 .543l-6.201 3.571a.31.31 0 0 1-.314 0 .315.315 0 0 1-.157-.272V9.408H.315A.314.314 0 0 1 0 9.095v-3.19c0-.173.141-.314.315-.314h5.352V3.929a.315.315 0 0 1 .471-.272z" class="cls-1"/></svg>