<svg xmlns="http://www.w3.org/2000/svg" preserveAspectRatio="xMidYMid" viewBox="0 0 40 40"><defs><style>.cls-1{fill:#000;fill-rule:evenodd}</style></defs><path d="M20 40C8.972 40 0 31.027 0 20 0 8.972 8.972 0 20 0c11.029 0 20 8.972 20 20 0 11.026-8.973 20-20 20zm0-28.53c-9.345 0-14.384 8.722-14.384 8.722S10.655 28.913 20 28.913c9.347 0 14.383-8.721 14.383-8.721S29.347 11.47 20 11.47zm0 16.156c-4.101 0-7.437-3.335-7.437-7.435 0-4.101 3.336-7.437 7.437-7.437 4.101 0 7.438 3.336 7.437 7.437 0 4.098-3.336 7.435-7.437 7.435zm0-12.453a5.025 5.025 0 0 0-5.021 5.019A5.026 5.026 0 0 0 20 25.211c2.77 0 5.02-2.252 5.02-5.019A5.026 5.026 0 0 0 20 15.173zm.002 8.637a3.621 3.621 0 1 1 0-7.241c.562 0 1.085.139 1.561.368a1.79 1.79 0 0 0 .288 3.558 1.79 1.79 0 0 0 1.663-1.139c.064.269.108.546.108.835a3.62 3.62 0 0 1-3.62 3.619z" class="cls-1"/></svg>