<svg xmlns="http://www.w3.org/2000/svg" preserveAspectRatio="xMidYMid" viewBox="0 0 26 26"><defs><style>.cls-1{fill:#3a5999;fill-rule:evenodd}</style></defs><path d="M12.997 0C5.82 0 0 5.823 0 13.004c0 7.182 5.82 13.005 12.997 13.005 7.178 0 12.998-5.823 12.998-13.005C25.995 5.821 20.175 0 12.997 0zm3.36 13.003l-2.13.001-.002 7.803h-2.922v-7.803h-1.95v-2.688l1.95-.002-.004-1.583c0-2.195.595-3.529 3.177-3.529h2.152v2.69h-1.346c-1.006 0-1.055.375-1.055 1.076l-.003 1.346h2.418l-.285 2.689z" class="cls-1"/></svg>