<svg xmlns="http://www.w3.org/2000/svg" preserveAspectRatio="xMidYMid" viewBox="0 0 15 14.969"><defs><style>.cls-1{fill:#000;fill-rule:evenodd}</style></defs><path d="M14.941 6.751a.778.778 0 0 0-.656-.671c-.421-.047-1.28-.157-1.28-.157a.852.852 0 0 1-.656-.828c0-.156.046-.312.14-.437 0-.016.781-1.032.781-1.032a.728.728 0 0 0-.016-.921 6.214 6.214 0 0 0-1.015-1.016.728.728 0 0 0-.921-.015l-1.016.781a.964.964 0 0 1-.468.14.836.836 0 0 1-.812-.687L8.865.658a.78.78 0 0 0-.671-.657 7.34 7.34 0 0 0-1.437 0 .78.78 0 0 0-.672.657l-.156 1.25a.824.824 0 0 1-.812.687.9.9 0 0 1-.5-.156l-.984-.765a.73.73 0 0 0-.922.015 6.253 6.253 0 0 0-1.015 1.016.71.71 0 0 0-.015.921l.749.985c.109.14.172.312.172.484a.84.84 0 0 1-.719.828L.665 6.08a.763.763 0 0 0-.656.671 7.35 7.35 0 0 0 0 1.438.78.78 0 0 0 .656.672l1.218.156a.813.813 0 0 1 .719.813.812.812 0 0 1-.172.5l-.749.983a.73.73 0 0 0 .015.923c.297.375.64.718 1.015 1.015.141.11.297.172.469.172a.697.697 0 0 0 .453-.156l.984-.766a.908.908 0 0 1 .5-.156c.406 0 .749.297.812.687 0 .016.156 1.25.156 1.25a.78.78 0 0 0 .672.657c.234.015.484.031.718.031.235 0 .484-.016.719-.031a.779.779 0 0 0 .671-.657l.157-1.25a.836.836 0 0 1 .812-.687c.172 0 .343.047.468.141l1.016.781a.695.695 0 0 0 .453.156.671.671 0 0 0 .468-.172c.375-.297.719-.64 1.015-1.015a.73.73 0 0 0 .016-.923 40.336 40.336 0 0 1-.781-1.03.744.744 0 0 1-.14-.453c0-.391.281-.735.656-.813 0 0 .859-.109 1.28-.156a.778.778 0 0 0 .656-.672 7.35 7.35 0 0 0 0-1.438zM7.475 9.862c-1.377 0-2.494-1.106-2.494-2.469 0-1.364 1.117-2.47 2.494-2.47 1.377 0 2.494 1.106 2.494 2.47 0 1.363-1.117 2.469-2.494 2.469z" class="cls-1"/></svg>