<svg viewBox="0 0 128 128" xmlns="http://www.w3.org/2000/svg"><rect fill="#D95032"/><path d="M49.211 70.991h16.883c-1.94 7.84-7.912 12.213-17.035 12.213-10.781 0-19.554-8.616-19.554-19.203 0-10.589 8.773-19.205 19.554-19.205 4.716 0 9.269 1.671 12.821 4.707l8.117-9.162c-5.803-4.958-13.239-7.689-20.937-7.689-17.6 0-31.917 14.063-31.917 31.348 0 17.284 14.317 31.347 31.917 31.347 17.995 0 30.083-12.23 30.083-30.428v-6.073H49.211v12.145zm67.932-12.25h-11v-11h-8v11h-11v8h11v11h8v-11h11z" fill="#FFF"/></svg>