<svg xmlns="http://www.w3.org/2000/svg" preserveAspectRatio="xMidYMid" viewBox="0 0 18 16"><defs><style>.cls-1{fill:#000;fill-rule:evenodd}</style></defs><path d="M10.862 2.746a3.477 3.477 0 0 1 1.522 2.567c.34.167.716.264 1.116.264 1.458 0 2.64-1.249 2.64-2.788C16.14 1.248 14.958 0 13.5 0c-1.444 0-2.616 1.226-2.638 2.746zM9.133 8.455c1.458 0 2.64-1.248 2.64-2.788 0-1.54-1.182-2.788-2.64-2.788-1.458 0-2.641 1.248-2.641 2.788 0 1.54 1.183 2.788 2.641 2.788zm1.12.191H8.012c-1.863 0-3.38 1.601-3.38 3.57v2.893l.007.046.189.062c1.779.587 3.324.783 4.596.783 2.484 0 3.924-.748 4.013-.796l.176-.094h.019v-2.894c.001-1.969-1.516-3.57-3.379-3.57zm4.367-2.879h-2.223a3.523 3.523 0 0 1-1.004 2.393c1.657.521 2.869 2.144 2.869 4.06v.892c2.195-.085 3.459-.742 3.543-.786l.176-.095H18V9.337c0-1.968-1.516-3.57-3.38-3.57zm-10.119-.19a2.52 2.52 0 0 0 1.403-.43 3.494 3.494 0 0 1 1.228-2.201c.003-.052.008-.104.008-.157 0-1.54-1.182-2.788-2.639-2.788-1.459 0-2.64 1.248-2.64 2.788 0 1.54 1.181 2.788 2.64 2.788zm2.37 2.583a3.53 3.53 0 0 1-1.003-2.38c-.083-.006-.164-.013-.248-.013H3.38C1.516 5.767 0 7.369 0 9.337v2.894l.007.044.189.064c1.426.47 2.7.687 3.806.755v-.874c.001-1.916 1.212-3.539 2.869-4.06z" class="cls-1"/></svg>