<svg xmlns="http://www.w3.org/2000/svg" preserveAspectRatio="xMidYMid" viewBox="0 0 24.96 22.281"><defs><style>.cls-1{fill:#000;fill-rule:evenodd}</style></defs><path d="M18.083-.011v-.003c-2.319.003-4.368 1.167-5.613 2.946C11.227 1.153 9.179-.011 6.86-.014 3.061-.011-.018 3.097-.018 6.934c.125 4.08 5.26 8.379 11.504 14.858.102.106.206.194.316.266.146.118.329.193.505.218l.022.01h.145l.043-.003c.233-.003.48-.101.647-.242.065-.033.182-.134.294-.249 6.244-6.479 11.377-10.778 11.504-14.858 0-3.837-3.08-6.945-6.879-6.945zM12.495 20.83l-.022.026-.027-.027C6.118 14.439 1.208 9.764 1.334 6.934c.005-3.083 2.471-5.573 5.526-5.579 2.212 0 4.117 1.319 4.997 3.221l.141.308c.009.028.023.051.035.076.086.159.248.27.44.27a.5.5 0 0 0 .419-.241l.059-.128.132-.285c.882-1.902 2.788-3.221 5-3.221 3.056.006 5.519 2.496 5.525 5.579.127 2.83-4.783 7.505-11.113 13.896z" class="cls-1"/></svg>