<svg xmlns="http://www.w3.org/2000/svg" preserveAspectRatio="xMidYMid" viewBox="0 0 6 14.313"><defs><style>.cls-1{fill:#000;fill-rule:evenodd}</style></defs><path d="M5.685 9.074l-.005.056-.001.006a.555.555 0 0 1-.545.477v.001H4.97l-.024-.001-.023.001a.371.371 0 0 0-.345.365l-.295 3.771-.009.109a.553.553 0 0 1-.542.462H2.277a.555.555 0 0 1-.545-.474l-.007-.085-.295-3.778a.37.37 0 0 0-.345-.37l-.023-.001-.024.001H.871v-.001a.556.556 0 0 1-.542-.457L.32 9.047.002 5.442a.86.86 0 0 1 .85-.869h4.303a.86.86 0 0 1 .851.869l-.321 3.632zM3.003 3.838c-1.04 0-1.883-.861-1.883-1.922 0-1.062.843-1.923 1.883-1.923 1.041 0 1.885.861 1.885 1.923 0 1.061-.844 1.922-1.885 1.922z" class="cls-1"/></svg>