<svg xmlns="http://www.w3.org/2000/svg" preserveAspectRatio="xMidYMid" viewBox="0 0 13 18"><defs><style>.cls-1{fill:#000;fill-rule:evenodd}</style></defs><path d="M12.438 17.998c-.309 0-.812-.253-.812-.564V10.18c0-.289-.34-.547-.627-.547H7.688c-.31 0-.868-.337-.868-.649v-.703c-.206.034-.104.073-.32.073-.216 0-.141-.039-.347-.073v.703c0 .312-.531.649-.841.649H2c-.286 0-.626.258-.626.547v7.254c0 .311-.503.564-.813.564A.563.563 0 0 1 0 17.434V10.18c0-.922.833-1.929 1.749-1.929h3.003v-.313c-1.398-.664-2.767-2.079-2.767-3.734 0-2.289 2.241-4.206 4.515-4.206 2.274 0 4.404 1.917 4.404 4.206 0 1.655-1.257 3.069-2.655 3.734v.313h3.001c.916 0 1.75 1.007 1.75 1.929v7.254a.564.564 0 0 1-.562.564zM9.502 4.204c0-1.666-1.347-2.824-3.002-2.824-1.655 0-3.059 1.158-3.059 2.824S4.845 6.945 6.5 6.945c1.655 0 3.002-1.075 3.002-2.741zm-5.967 8.168c.315 0 .561.202.561.459v4.708c-.001.258-.247.459-.561.459-.315 0-.813-.201-.813-.459v-4.708c0-.257.498-.459.813-.459zm5.91 0c.314 0 .812.202.812.459v4.708c0 .258-.498.459-.812.459-.315 0-.562-.201-.562-.459v-4.708c0-.257.247-.459.562-.459z" class="cls-1"/></svg>