<svg xmlns="http://www.w3.org/2000/svg" preserveAspectRatio="xMidYMid" viewBox="0 0 23.97 24"><defs><style>.cls-1{fill:#000;fill-rule:evenodd}</style></defs><path d="M22.012 1.936a6.597 6.597 0 0 0-9.341.001c-1.858 1.864-2.355 4.558-1.533 6.889l-9.809 9.831-1.338 4.014 4.006 1.337 1.194-1.337 3.864-1.339v-2.674l1.473-1.337 1.406 1.337 2.704-2.676-1.317-1.338 1.811-1.808c2.329.828 5.02.329 6.88-1.536a6.628 6.628 0 0 0 0-9.364zm-3.164 5.32a2.146 2.146 0 0 1-2.142-2.148c0-1.184.96-2.147 2.142-2.147a2.147 2.147 0 0 1 0 4.295z" class="cls-1"/></svg>