<svg xmlns="http://www.w3.org/2000/svg" preserveAspectRatio="xMidYMid" viewBox="0 0 35.97 40.031"><defs><style>.cls-1{fill:#000;fill-rule:evenodd}</style></defs><path d="M32.701 22.116a3.147 3.147 0 0 0 3.279-3.014c.076-1.744-1.143-3.311-2.878-3.386l-11.517-1.43s2.401-3.968 2.401-9.846c0-3.919-2.833-4.447-4.499-4.447-1.31 0-1.663 2.509-1.663 2.509h-.003c-.297 1.609-.683 3.015-2.026 5.603-1.503 2.9-3.551 2.628-5.94 5.211-.422.455-.988 1.206-1.54 2.13a.725.725 0 0 0-.128.214c-.05.114-.109.193-.16.299-.093.167-.181.333-.271.508-1.478 1.461-3.783 1.311-4.765 1.311-1.968 0-2.999 1.131-2.999 2.965v13.552c0 2.057.852 2.752 2.999 2.752h3c1.51 0 2.692.855 4.499 1.482 2.474.848 6.17 1.483 12.536 1.483l4.566.004c1.058 0 1.906-.477 2.519-1.054.233-.219.476-.537.581-1.158.017-.096.035-.5.033-.554.079-1.777-1.008-2.42-1.624-2.623.017-.005.006-.021.04-.019l1.954.087c1.734.077 3.447-1.158 3.447-3.259 0-1.741-1.428-2.969-3.158-3.053l1.037.047a3.156 3.156 0 0 0 3.282-3.017 3.158 3.158 0 0 0-3.002-3.297z" class="cls-1"/></svg>