<svg xmlns="http://www.w3.org/2000/svg" preserveAspectRatio="xMidYMid" viewBox="0 0 10 10"><defs><style>.cls-1{fill:#000;fill-rule:evenodd}</style></defs><path d="M6.794 10c-.878 0-1.68-.348-2.29-.965L3.55 8.07a.376.376 0 0 1 0-.541l.534-.541a.366.366 0 0 1 .534 0l.955.966c.305.309.725.502 1.183.502.916 0 1.679-.773 1.679-1.699 0-.464-.191-.888-.496-1.197l-.954-.965a.376.376 0 0 1 0-.541l.534-.54a.365.365 0 0 1 .534 0l.955.965c.61.617.954 1.428.992 2.278C10 8.533 8.55 10 6.794 10zm0-3.707l-.535.541a.366.366 0 0 1-.534 0L3.206 4.286a.376.376 0 0 1 0-.541l.535-.541a.366.366 0 0 1 .534 0l2.519 2.549a.377.377 0 0 1 0 .54zm-.878-3.282a.365.365 0 0 1-.534 0l-.955-.965a1.664 1.664 0 0 0-1.183-.502c-.916 0-1.679.773-1.679 1.699 0 .464.191.888.496 1.197l.916 1.004a.376.376 0 0 1 0 .541l-.534.54a.366.366 0 0 1-.535 0L.954 5.56A3.33 3.33 0 0 1 0 3.243C0 1.467 1.45 0 3.206 0c.878 0 1.679.348 2.29.965l.954.965a.376.376 0 0 1 0 .541l-.534.54z" class="cls-1"/></svg>