<svg xmlns="http://www.w3.org/2000/svg" preserveAspectRatio="xMidYMid" viewBox="0 0 20 18"><defs><style>.cls-1{fill:#000;fill-rule:evenodd}</style></defs><path d="M19.95 15.883H7.489a.05.05 0 0 1-.05-.05v-1.168a.05.05 0 0 1 .05-.05H19.95c.029 0 .05.021.05.05v1.168a.05.05 0 0 1-.05.05zM7.489 9.027a.05.05 0 0 1-.05-.05V7.809a.05.05 0 0 1 .05-.049H19.95c.029 0 .05.02.05.049v1.168a.05.05 0 0 1-.05.05H7.489zm0-6.86a.05.05 0 0 1-.05-.05V.949A.05.05 0 0 1 7.489.9H19.95c.029 0 .05.02.05.049v1.168a.05.05 0 0 1-.05.05H7.489zM2.198 4.809L1.08 3.682 0 2.6l1.126-1.122 1.076 1.085L4.779 0l1.118 1.127L3.32 3.69 2.198 4.809zm.75 6.203c-.863 0-1.562-.7-1.562-1.564a1.563 1.563 0 1 1 3.125 0c0 .864-.699 1.564-1.563 1.564zm0 3.723a1.572 1.572 0 1 1 0 3.145 1.572 1.572 0 0 1 0-3.145zM13.377 3.013a.05.05 0 0 1 .05.05v1.168a.05.05 0 0 1-.05.049H7.489c-.025 0-.046-.021-.05-.049V3.063a.05.05 0 0 1 .05-.05h5.888zm0 6.86a.05.05 0 0 1 .05.049v1.169a.05.05 0 0 1-.05.049H7.489c-.025 0-.046-.025-.05-.049V9.922a.05.05 0 0 1 .05-.049h5.888zm0 6.86c.029 0 .05.021.05.049v1.169a.05.05 0 0 1-.05.049H7.489a.05.05 0 0 1-.05-.049v-1.169a.05.05 0 0 1 .05-.049h5.888z" class="cls-1"/></svg>