<svg xmlns="http://www.w3.org/2000/svg" preserveAspectRatio="xMidYMid" viewBox="0 0 40 37"><defs><style>.cls-1{fill:#000;fill-rule:evenodd}</style></defs><path d="M39.428 36.438H12.997a.578.578 0 0 1-.573-.581v-6.803c0-.321.257-.582.573-.582h26.431c.315 0 .572.261.572.582v6.803c0 .32-.257.581-.572.581zm0-13.955H12.997a.578.578 0 0 1-.573-.581v-6.804c0-.32.257-.581.573-.581h26.431c.315 0 .572.261.572.581v6.804c0 .32-.257.581-.572.581zm0-13.955H12.997a.578.578 0 0 1-.573-.582V1.143c0-.32.257-.581.573-.581h26.431c.315 0 .572.261.572.581v6.803a.578.578 0 0 1-.572.582zM4.472 37C2.002 37 0 34.965 0 32.455s2.002-4.545 4.472-4.545c2.47 0 4.472 2.035 4.472 4.545S6.942 37 4.472 37zm0-13.955C2.002 23.045 0 21.01 0 18.5s2.002-4.545 4.472-4.545c2.47 0 4.472 2.035 4.472 4.545s-2.002 4.545-4.472 4.545zm0-13.955C2.002 9.09 0 7.055 0 4.545S2.002 0 4.472 0c2.47 0 4.472 2.035 4.472 4.545S6.942 9.09 4.472 9.09z" class="cls-1"/></svg>