<svg xmlns="http://www.w3.org/2000/svg" preserveAspectRatio="xMidYMid" viewBox="0 0 16 23"><defs><style>.cls-1{fill:#000;fill-rule:evenodd}</style></defs><path d="M8 23c-4.418 0-8-3.451-8-7.707 0-4.257 3.582-7.708 8-7.708s8 3.451 8 7.708C16 19.549 12.418 23 8 23zm0-10.574c-.982 0-1.778.767-1.778 1.713a1.71 1.71 0 0 0 1.016 1.548v2.621h1.524v-2.621a1.71 1.71 0 0 0 1.016-1.548c0-.946-.796-1.713-1.778-1.713zm3.682-5.597V5.016c0-1.956-1.651-3.548-3.682-3.548-2.031 0-3.683 1.592-3.683 3.548v1.813l-.025.01a9.626 9.626 0 0 0-1.499.769V5.016C2.793 2.25 5.129 0 8 0s5.206 2.25 5.206 5.016v2.592a9.616 9.616 0 0 0-1.524-.779z" class="cls-1"/></svg>