<svg xmlns="http://www.w3.org/2000/svg" preserveAspectRatio="xMidYMid" viewBox="0 0 10 13"><defs><style>.cls-1{fill:#000;fill-rule:evenodd}</style></defs><path d="M4.999 0C2.243 0 0 2.147 0 4.786a4.5 4.5 0 0 0 .437 1.953c1.25 2.618 3.647 5.383 4.352 6.168a.286.286 0 0 0 .422 0c.704-.785 3.101-3.549 4.351-6.168a4.5 4.5 0 0 0 .437-1.953c0-2.639-2.243-4.786-5-4.786zm0 7.272c-1.431 0-2.597-1.116-2.597-2.486 0-1.371 1.166-2.486 2.597-2.486 1.432 0 2.598 1.115 2.598 2.486 0 1.37-1.165 2.486-2.598 2.486z" class="cls-1"/></svg>