<svg xmlns="http://www.w3.org/2000/svg" preserveAspectRatio="xMidYMid" viewBox="0 0 11 10.969"><defs><style>.cls-1{fill:#000;fill-rule:evenodd}</style></defs><path d="M8.708 1.032s-2.737-2.638-5.971.397c0 0-1.741 1.446-1.386 5.746 0 0-.249 2.168-1.351 2.278 0 0 1.173.036 1.6-.688 0 0 .035 1.445-1.422 1.807 0 0 1.457-.108 1.955-.939 0 0 .143.831-.924 1.12 0 0 2.097.072 2.986-.904 0 0-1.173-1.663-.782-2.566 0 0 .995-2.493 2.56-2.819 0 0-.605.94-1.138 1.229 0 0 2.595-.397 3.804-1.3 0 0 .213-.037.213.397 0 0 .177 1.409.64 1.988 0 0 .107 3.396-2.133 4.191 0 0 3.306-.216 3.626-4.156-.002 0 .354-5.637-2.277-5.781z" class="cls-1"/></svg>