<svg xmlns="http://www.w3.org/2000/svg" preserveAspectRatio="xMidYMid" viewBox="0 0 4.59 23.125"><defs><style>.cls-1{fill:#000;fill-rule:evenodd}</style></defs><path d="M2.298 13.877a2.304 2.304 0 0 1-2.293-2.315 2.304 2.304 0 0 1 2.293-2.315 2.303 2.303 0 0 1 2.292 2.315 2.303 2.303 0 0 1-2.292 2.315zm0-9.26A2.304 2.304 0 0 1 .005 2.303 2.304 2.304 0 0 1 2.298-.012 2.303 2.303 0 0 1 4.59 2.303a2.303 2.303 0 0 1-2.292 2.314zm0 13.889c1.266 0 2.292 1.037 2.292 2.315s-1.026 2.315-2.292 2.315a2.305 2.305 0 0 1-2.293-2.315 2.305 2.305 0 0 1 2.293-2.315z" class="cls-1"/></svg>