<svg xmlns="http://www.w3.org/2000/svg" preserveAspectRatio="xMidYMid" viewBox="0 0 40 40.031"><defs><style>.cls-1{fill:#000;fill-rule:evenodd}</style></defs><path d="M39.745 21.806l-2.94-4.73a1.716 1.716 0 0 1-.219-1.261l1.167-5.464a1.696 1.696 0 0 0-1.122-1.97l-5.25-1.707a1.68 1.68 0 0 1-.967-.823L27.844.904a1.659 1.659 0 0 0-2.108-.778l-5.104 2.115a1.652 1.652 0 0 1-1.262 0L14.267.126a1.66 1.66 0 0 0-2.109.779L9.589 5.851a1.676 1.676 0 0 1-.968.822l-5.25 1.708a1.695 1.695 0 0 0-1.121 1.97l1.166 5.464c.093.433.014.886-.219 1.261l-2.939 4.73a1.71 1.71 0 0 0 .39 2.241l4.357 3.425a1.7 1.7 0 0 1 .631 1.109l.747 5.54c.116.863.86 1.496 1.718 1.462l5.51-.216c.436-.018.862.14 1.186.437l4.083 3.757a1.653 1.653 0 0 0 2.243 0l4.083-3.757c.324-.298.75-.455 1.187-.437l5.509.216a1.676 1.676 0 0 0 1.718-1.462l.747-5.54a1.7 1.7 0 0 1 .631-1.109l4.357-3.425a1.71 1.71 0 0 0 .39-2.241zm-24.369 4.949l-4.865-3.446 1.999 4.7-1.332.583-3.067-7.206 1.396-.611 4.957 3.539-2.049-4.812 1.333-.583 3.067 7.206-1.439.63zm2.956-1.294l-3.066-7.206 5.269-2.307.518 1.22-3.834 1.678.679 1.597 3.569-1.562.516 1.215-3.568 1.561.835 1.961 3.97-1.737.516 1.214-5.404 2.366zm12.012-5.257l-3.708-4.769.882 6.005-1.556.681-4.763-6.463 1.468-.643 3.179 4.481-.808-5.518 1.707-.747 3.388 4.488-1.052-5.511 1.444-.632 1.341 7.962-1.522.666z" class="cls-1"/></svg>