<svg xmlns="http://www.w3.org/2000/svg" viewBox="0 0 306.4 262.2"><path d="M293.9 0H98.3c-6.9 0-12.5 5.6-12.5 12.5v32h25V25h170.6v127.5h-22.7v25h35.2c6.9 0 12.5-5.6 12.5-12.5V12.5c0-6.9-5.6-12.5-12.5-12.5z"/><path d="M208.1 84.7H12.5C5.6 84.7 0 90.3 0 97.2v152.5c0 6.9 5.6 12.5 12.5 12.5h195.6c6.9 0 12.5-5.6 12.5-12.5V97.2c0-6.9-5.6-12.5-12.5-12.5zm-12.5 152.5H25V109.7h170.6v127.5z"/><path d="M71.1 219.9c2 1.2 4.3 1.9 6.6 1.9 1.9 0 3.8-.4 5.6-1.3l71.8-35.8c4.2-2.1 6.9-6.4 6.9-11.2s-2.7-9.1-6.9-11.2l-71.8-35.8c-3.9-1.9-8.5-1.7-12.2.6-3.7 2.3-5.9 6.3-5.9 10.6v71.7c0 4.2 2.2 8.2 5.9 10.5z"/></svg>