<svg xmlns="http://www.w3.org/2000/svg" preserveAspectRatio="xMidYMid" viewBox="0 0 18 18"><defs><style>.cls-1{fill:#000;fill-rule:evenodd}</style></defs><path d="M9 0C4.009 0 0 4.009 0 9s4.009 9 9 9 9-4.009 9-9-4.009-9-9-9zm4.909 9.409c0 .245-.164.409-.409.409h-3.477c-.123 0-.205.082-.205.205V13.5c0 .245-.164.409-.409.409h-.818c-.246 0-.409-.164-.409-.409v-3.477c0-.123-.082-.205-.205-.205H4.5c-.246 0-.409-.164-.409-.409v-.818c0-.246.163-.409.409-.409h3.477c.123 0 .205-.082.205-.205V4.5c0-.246.163-.409.409-.409h.818c.245 0 .409.163.409.409v3.477c0 .123.082.205.205.205H13.5c.245 0 .409.163.409.409v.818z" class="cls-1"/></svg>