<svg xmlns="http://www.w3.org/2000/svg" viewBox="0 9.1 456.8 438.5"><path d="M441.1 252.7c10.5-12 15.7-26.2 15.7-42.5 0-14.8-5.4-27.7-16.3-38.5-10.8-10.9-23.7-16.3-38.5-16.3h-79.1c.8-2.7 1.5-4.9 2.3-6.9.8-1.9 1.8-4 3.1-6.3s2.3-4 2.9-5.1c3.4-6.5 6-11.8 7.9-16 1.8-4.2 3.6-9.9 5.4-17.1 1.8-7.2 2.7-14.5 2.7-21.7 0-4.6-.1-8.3-.1-11.1-.1-2.9-.6-7.1-1.4-12.8-.9-5.7-2-10.5-3.4-14.3-1.4-3.8-3.7-8.1-6.9-12.8-3.1-4.8-6.9-8.6-11.4-11.6s-10.2-5.4-17.1-7.4c-7-2-14.8-3-23.6-3-4.9 0-9.2 1.8-12.8 5.4-3.8 3.8-7 8.6-9.7 14.3-2.7 5.7-4.5 10.7-5.6 14.8-1 4.2-2.2 10-3.6 17.4-1.7 8-3 13.8-3.9 17.3-.9 3.5-2.5 8.1-5 13.8-2.5 5.7-5.4 10.3-8.9 13.7-6.3 6.3-15.9 17.7-28.8 34.3-9.3 12.2-18.9 23.7-28.8 34.5-9.9 10.9-17.1 16.5-21.7 16.8-4.8.4-8.8 2.3-12.3 5.9-3.4 3.5-5.1 7.7-5.1 12.4v183c0 4.9 1.8 9.2 5.4 12.7 3.6 3.5 7.9 5.4 12.8 5.6 6.7.2 21.7 4.4 45.1 12.6 14.7 4.9 26.1 8.7 34.4 11.3 8.3 2.6 19.8 5.3 34.7 8.3 14.8 2.9 28.6 4.4 41.1 4.4h36.9c25.3-.4 44.1-7.8 56.2-22.3 11-13.1 15.7-30.4 14-51.7 7.4-7 12.6-16 15.4-26.8 3.2-11.6 3.2-22.7 0-33.4 8.8-11.6 12.8-24.6 12.3-39.1 0-6.2-1.4-13.4-4.3-21.8zm-340.6-60.8H18.3c-5 0-9.2 1.8-12.9 5.4-3.6 3.6-5.4 7.9-5.4 12.8v182.7c0 4.9 1.8 9.2 5.4 12.8 3.6 3.6 7.9 5.4 12.9 5.4h82.2c4.9 0 9.2-1.8 12.8-5.4 3.6-3.6 5.4-7.9 5.4-12.8V210.1c0-4.9-1.8-9.2-5.4-12.8-3.6-3.6-7.9-5.4-12.8-5.4zM67.7 369.3c-3.6 3.5-7.9 5.3-12.8 5.3-5.1 0-9.5-1.8-13-5.3s-5.3-7.8-5.3-13c0-4.9 1.8-9.2 5.3-12.8 3.5-3.6 7.9-5.4 13-5.4 4.9 0 9.2 1.8 12.8 5.4 3.6 3.6 5.4 7.9 5.4 12.8 0 5.2-1.8 9.5-5.4 13z"/></svg>