<svg xmlns="http://www.w3.org/2000/svg" preserveAspectRatio="xMidYMid" viewBox="0 0 16 16"><defs><style>.cls-1{fill:#000;fill-rule:evenodd}</style></defs><path d="M15.751 16h-3.113a.248.248 0 0 1-.245-.247c0-6.704-5.448-12.158-12.146-12.158A.247.247 0 0 1 0 3.349V.248C0 .111.111 0 .247 0c8.651 0 15.696 7.023 15.739 15.675l.014.078a.25.25 0 0 1-.249.247zM.247 5.226c5.771 0 10.475 4.682 10.518 10.449l.012.077a.248.248 0 0 1-.248.247H7.506a.248.248 0 0 1-.247-.247c0-3.87-3.147-7.019-7.012-7.019A.247.247 0 0 1 0 8.487V5.474c0-.137.111-.248.247-.248zm2.125 6.028a2.375 2.375 0 0 1 2.372 2.374A2.376 2.376 0 0 1 2.372 16 2.376 2.376 0 0 1 0 13.628a2.375 2.375 0 0 1 2.372-2.374z" class="cls-1"/></svg>