<svg xmlns="http://www.w3.org/2000/svg" preserveAspectRatio="xMidYMid" viewBox="0 0 20 20"><defs><style>.cls-1{fill:#000;fill-rule:evenodd}</style></defs><path d="M19.429 3.522h-8.805c-.262 1.342-1.415 2.357-2.797 2.357-1.382 0-2.536-1.015-2.798-2.357H.558a.568.568 0 0 1-.562-.579c0-.321.25-.578.562-.578h4.471C5.291 1.019 6.44.008 7.822.008c1.383 0 2.536 1.016 2.798 2.357h8.809c.312 0 .562.257.562.578 0 .322-.25.579-.562.579zM7.827 1.165c-.954 0-1.728.797-1.728 1.778 0 .982.774 1.779 1.728 1.779.953 0 1.727-.797 1.727-1.779 0-.981-.774-1.778-1.727-1.778zM.558 9.406h9.184c.262-1.346 1.419-2.357 2.797-2.357 1.382 0 2.536 1.016 2.798 2.357h4.088c.312 0 .562.257.562.579 0 .321-.25.578-.562.578h-4.088c-.262 1.342-1.416 2.357-2.798 2.357-1.382 0-2.535-1.015-2.797-2.357H.558a.568.568 0 0 1-.562-.578c0-.322.25-.579.562-.579zm11.981 2.357c.954 0 1.728-.797 1.728-1.778 0-.982-.774-1.779-1.728-1.779-.953 0-1.727.797-1.727 1.779 0 .981.774 1.778 1.727 1.778zM.558 16.49h4.471c.262-1.341 1.411-2.357 2.793-2.357 1.383 0 2.536 1.016 2.798 2.357h8.805c.312 0 .562.257.562.579 0 .321-.25.578-.562.578h-8.801c-.262 1.342-1.415 2.357-2.797 2.357-1.382 0-2.536-1.015-2.798-2.357H.558a.568.568 0 0 1-.562-.578c0-.322.25-.579.562-.579zm7.269 2.357c.953 0 1.727-.797 1.727-1.778 0-.978-.774-1.779-1.727-1.779-.954 0-1.728.797-1.728 1.779 0 .981.774 1.778 1.728 1.778z" class="cls-1"/></svg>