<svg xmlns="http://www.w3.org/2000/svg" preserveAspectRatio="xMidYMid" viewBox="0 0 21.25 22.969"><defs><style>.cls-1{fill:#000;fill-rule:evenodd}</style></defs><path d="M21.099 3.995l-1.931 4.304c-.345.769-1.234 1.118-1.987.78-.754-.338-1.082-1.234-.737-2.003l.435-.97-2.052.75c.111.51.173 1.039.173 1.581 0 3.663-2.683 6.72-6.158 7.351v1.689h1.752c.804 0 1.454.654 1.454 1.453 0 .8-.651 1.454-1.454 1.454H8.842v1.136c0 .802-.656 1.449-1.459 1.449a1.457 1.457 0 0 1-1.461-1.449v-1.136H4.254a1.457 1.457 0 0 1-1.455-1.454c0-.799.652-1.453 1.455-1.453h1.668v-1.738C2.541 15.018 0 12.018 0 8.437 0 4.32 3.366.969 7.501.969a7.497 7.497 0 0 1 6.082 3.118l1.953-.72-.846-.223-.018-.008c-.745-.334-1.027-1.338-.695-2.103.334-.773 1.273-1.252 2.031-.924 0 0 4.249 1.848 4.308 1.879 1.303.686.947 1.635.783 2.007zm-13.6-.128c-2.53 0-4.589 2.049-4.589 4.57 0 2.521 2.058 4.571 4.589 4.572 2.531 0 4.588-2.051 4.588-4.572s-2.057-4.57-4.588-4.57z" class="cls-1"/></svg>