<svg xmlns="http://www.w3.org/2000/svg" viewBox="1845 -379.7 768 1126.1"><path d="M2540.9-220.5l-.5.2c-40.3-55.8-95.3-100.4-159.2-128.1-1.1-.5-2.3-1-3.5-1.5-45.8-19.1-96-29.7-148.8-29.7-79 0-152.3 23.7-213.4 64.4C1912.9-246.7 1845-129.9 1845 2.4c0 183.3 130.1 336.9 303.2 373.9v89h-85.4c-41.1 0-74.5 33.5-74.5 74.4 0 41 33.4 74.4 74.5 74.4h85.4v58.2c0 41 33.6 74.2 74.8 74.2 41.1 0 74.7-33.1 74.7-74.2V614h89.7c41.1 0 74.4-33.5 74.4-74.4 0-40.9-33.3-74.4-74.4-74.4h-89.7v-86.5c172.3-31.3 306.6-179.1 314.9-358.8v-.2c.1-2.7.2-5.5.3-8.3v-1c.1-2.7.1-5.4.1-8.1v-5.2c-.4-25.9-3.5-51.2-8.8-75.6l.2-.1c-11.3-52.1-33.3-100.2-63.5-141.9zM2229 236.4c-129.6-.1-235-105-235-234.1s105.4-234 235-234 234.9 104.9 234.9 234-105.3 234.1-234.9 234.1z"/></svg>