<svg xmlns="http://www.w3.org/2000/svg" preserveAspectRatio="xMidYMid" viewBox="0 0 25 25"><defs><style>.cls-1{fill:#000;fill-rule:evenodd}</style></defs><path d="M23.502 7.533a1.484 1.484 0 0 1-1.497-1.481V5.017l-1.8 1.666c1.954 2.957 1.518 6.956-1.128 9.544a7.853 7.853 0 0 1-5.52 2.239 7.98 7.98 0 0 1-2.569-.421 8.5 8.5 0 0 0 3.459-2.627 4.759 4.759 0 0 0 2.488-1.287 4.603 4.603 0 0 0 0-6.608 4.796 4.796 0 0 0-3.377-1.369 4.8 4.8 0 0 0-3.378 1.369 4.602 4.602 0 0 0-.459 6.086 3.92 3.92 0 0 1-3.281.36 7.51 7.51 0 0 1 1.598-8.524c1.475-1.441 3.434-2.22 5.519-2.22 1.613 0 3.148.514 4.447 1.397l1.592-1.495-.874.141h-.02c-.825 0-1.502-.779-1.512-1.59-.012-.819.66-1.619 1.494-1.629 0 0 4.694-.052 4.763-.049 1.486.09 1.554 1.073 1.554 1.469v4.583c0 .817-.662 1.481-1.499 1.481zM5.94 6.116c-1.726.681-2.949 2.335-2.949 4.265 0 2.536 2.108 4.598 4.7 4.598 2.594 0 4.701-2.062 4.701-4.598a4.49 4.49 0 0 0-.754-2.493 3.589 3.589 0 0 1 1.918-.549c.436 0 .858.078 1.254.224.363.87.558 1.821.558 2.818 0 3.686-2.722 6.759-6.316 7.393v1.675h1.813c.822 0 1.489.66 1.489 1.465 0 .806-.666 1.465-1.489 1.465H9.052v1.165c0 .804-.673 1.456-1.497 1.456-.823 0-1.497-.652-1.497-1.456v-1.165H4.37c-.824 0-1.492-.659-1.492-1.465 0-.804.668-1.465 1.492-1.465h1.688v-1.723C2.613 17.001 0 13.985 0 10.382 0 6.24 3.459 2.869 7.694 2.869a7.84 7.84 0 0 1 1.654.177 8.944 8.944 0 0 0-3.408 3.07z" class="cls-1"/></svg>