<svg xmlns="http://www.w3.org/2000/svg" viewBox="246 -167.9 1089 814.2"><path d="M1286.2-66.3c-3-1.6-220.6-96.2-220.6-96.2-38.8-16.8-86.9 7.7-104 47.3-17 39.2-2.6 90.6 35.6 107.7.3.2.6.3.9.4l43.3 11.4-100 36.9c-52-71.9-128.3-125.3-216.9-147.8-23.2-5.9-47.3-9.7-72-11.1-7.5-.4-15-.7-22.6-.7-211.7 0-384 171.6-384 382.4 0 183.3 130.1 336.9 303.2 373.9v.3c25.8 5.4 52.6 8.3 80 8.3 56.2 0 109.6-12 157.7-33.5 133.1-60 227.1-193.8 227.1-348.9 0-27.8-3.2-54.8-8.9-80.9l105.1-38.4-22.3 49.7c-17.7 39.4-.9 85.2 37.7 102.6 38.6 17.3 84.1-.6 101.7-39.9l98.9-220.4c8.6-19.4 26.8-68-39.9-103.1zM630 497.9c-129.6-.1-235-105-235-234.1s105.4-234 235-234 234.9 104.9 234.9 234S759.5 497.9 630 497.9z"/></svg>