<svg xmlns="http://www.w3.org/2000/svg" preserveAspectRatio="xMidYMid" viewBox="0 0 22.59 22.625"><defs><style>.cls-1{fill:#000;fill-rule:evenodd}</style></defs><path d="M22.342 12.112l-2.358 4.085c-.422.729-1.341.987-2.056.574-.715-.413-.951-1.337-.53-2.067l.532-.922-2.382.605c.15 3.599-2.266 6.955-5.861 7.955a7.6 7.6 0 0 1-5.872-.731 7.585 7.585 0 0 1-3.572-4.714c-1.072-4.156 1.416-8.464 5.55-9.614.803-.223 1.614-.277 2.417-.238l-.714-.239.738-2.074-.713.507a.15.15 0 0 0-.018.009c-.734.358-1.686-.068-2.061-.813-.379-.752-.146-1.78.592-2.152 0 0 4.139-2.08 4.201-2.105 1.361-.563 1.862.319 2.043.683L14.347 5.1c.37.757.069 1.663-.673 2.025-.742.363-1.641.042-2.01-.715l-.467-.956-.73 2.036c.405.15.807.319 1.189.54 1.38.796 2.43 2.011 3.084 3.439l2.133-.547-.82-.308-.017-.01c-.707-.408-.886-1.436-.478-2.163.412-.735 1.395-1.116 2.115-.712 0 0 4.039 2.27 4.094 2.307 1.227.814.777 1.722.575 2.076zm-10.01 1.415a4.638 4.638 0 0 0-2.184-2.887 4.636 4.636 0 0 0-3.592-.448c-2.532.703-4.057 3.345-3.399 5.887a4.64 4.64 0 0 0 2.184 2.888 4.64 4.64 0 0 0 3.592.447c2.53-.702 4.055-3.344 3.399-5.887z" class="cls-1"/></svg>