<svg xmlns="http://www.w3.org/2000/svg" preserveAspectRatio="xMidYMid" viewBox="0 0 21.09 22"><defs><style>.cls-1{fill:#000;fill-rule:evenodd}</style></defs><path d="M17.205 14.156a3.866 3.866 0 0 0-3.014 1.457l.003-.002-6.588-3.561a3.859 3.859 0 0 0-.048-2.248l6.503-3.58a3.865 3.865 0 0 0 3.144 1.629c2.147-.001 3.883-1.754 3.883-3.919 0-2.167-1.736-3.92-3.883-3.92-2.142 0-3.878 1.753-3.878 3.92 0 .331.045.65.118.958L6.86 8.51c.011.016.022.028.03.042a3.852 3.852 0 0 0-3.023-1.467c-2.143 0-3.88 1.754-3.88 3.919 0 2.167 1.737 3.918 3.88 3.919a3.86 3.86 0 0 0 3.092-1.557l6.545 3.538c-.117.37-.177.762-.177 1.173 0 2.165 1.736 3.92 3.878 3.92 2.147 0 3.883-1.755 3.883-3.92 0-2.164-1.736-3.919-3.883-3.921zm0-12.672a2.438 2.438 0 0 1 2.427 2.448c-.003 1.353-1.086 2.448-2.427 2.448-1.339 0-2.42-1.095-2.426-2.448.006-1.355 1.087-2.446 2.426-2.448zM3.867 13.454c-1.34-.002-2.423-1.096-2.427-2.45a2.445 2.445 0 0 1 2.427-2.45 2.442 2.442 0 0 1 2.425 2.45c-.002 1.354-1.086 2.448-2.425 2.45zm13.338 7.073c-1.339-.004-2.42-1.097-2.426-2.45.006-1.353 1.087-2.448 2.426-2.449 1.341.001 2.424 1.096 2.427 2.449a2.443 2.443 0 0 1-2.427 2.45z" class="cls-1"/></svg>