<svg xmlns="http://www.w3.org/2000/svg" preserveAspectRatio="xMidYMid" viewBox="0 0 18 18"><defs><style>.cls-1{fill:#000;fill-rule:evenodd}</style></defs><path d="M17.929 6.843a.9.9 0 0 0-.488-.526c-.898-.394-3.258-.543-5.3-.619-.637-1.856-1.667-4.594-2.529-5.438a.882.882 0 0 0-.618-.263.958.958 0 0 0-.637.263c-.843.844-1.873 3.582-2.51 5.438-2.042.076-4.402.225-5.301.619a.841.841 0 0 0-.487.526.885.885 0 0 0 .056.75c.581 1.068 2.061 2.663 3.914 4.238-.504 2.063-.842 3.9-.936 5.194a.909.909 0 0 0 .412.825.866.866 0 0 0 .9.057c.318-.188.674-.357 1.03-.526.974-.487 2.154-1.031 3.559-1.912 1.404.881 2.584 1.425 3.559 1.912.356.169.712.338 1.029.526.131.056.262.093.413.093a.925.925 0 0 0 .487-.15.908.908 0 0 0 .413-.825c-.094-1.294-.432-3.131-.938-5.194 1.855-1.575 3.335-3.17 3.915-4.238a.881.881 0 0 0 .057-.75z" class="cls-1"/></svg>