<svg xmlns="http://www.w3.org/2000/svg" preserveAspectRatio="xMidYMid" viewBox="0 0 18 15"><defs><style>.cls-1{fill:#000;fill-rule:evenodd}</style></defs><path d="M16.615 15H1.384c-.765 0-1.385-.395-1.385-.882V.882C-.001.395.619 0 1.384 0h15.231C17.38 0 18 .395 18 .882v13.236c0 .487-.62.882-1.385.882zM3.461 11.443h6.923c.383 0 .693-.198.693-.442 0-.243-.31-.441-.693-.441H3.461c-.382 0-.691.198-.691.441 0 .244.309.442.691.442zm11.078-8.824H3.461c-.382 0-.691.198-.691.441 0 .244.309.442.691.442h11.078c.381 0 .692-.198.692-.442 0-.243-.311-.441-.692-.441zm0 2.647H3.461c-.382 0-.691.198-.691.441 0 .244.309.441.691.441h11.078c.381 0 .692-.197.692-.441 0-.243-.311-.441-.692-.441zm0 2.647H3.461c-.382 0-.691.198-.691.441 0 .244.309.442.691.442h11.078c.381 0 .692-.198.692-.442 0-.243-.311-.441-.692-.441z" class="cls-1"/></svg>