<svg xmlns="http://www.w3.org/2000/svg" preserveAspectRatio="xMidYMid" viewBox="0 0 39.97 37"><defs><style>.cls-1{fill:#000;fill-rule:evenodd}</style></defs><path d="M39.338 15.008l-4.452-4.53L19.993 25.64a.883.883 0 0 1-1.264 0l-4.518-4.594-8.052 8.2a3.528 3.528 0 0 1-5.054.001l-.088-.09a3.685 3.685 0 0 1-.001-5.146L13.58 11.214a.883.883 0 0 1 1.263 0l4.518 4.598 8.542-8.702 1.842-1.867L25.229.644C24.88.288 24.998 0 25.491 0h12.694c.909 0 1.785.815 1.785 1.745v12.996c0 .502-.283.622-.632.267zM5.469 33.687l1.696-1.729c.349-.355.631-.236.631.266V37H3.633v-.72c0-.399.283-1.009.631-1.365l1.205-1.228zm7.16-7.29c.349-.356.632-.236.632.266v10.336h-3.73v-6.54c0-.501.282-1.196.632-1.552l2.466-2.51zm2.995-.169l1.898 1.93.6.607c.331.336.6 1.015.6 1.517v6.717h-3.73V26.494c0-.502.283-.621.632-.266zm5.571 1.929l2.355-2.395c.349-.356.632-.236.632.266v10.971h-3.73v-7.174c0-.502.167-1.08.371-1.289l.372-.379zm7.817-7.959c.349-.355.632-.236.632.266V37h-3.73V24.265c0-.503.283-1.198.632-1.554l2.466-2.513zm5.196-5.29c.349-.356.633-.236.633.266v21.825h-3.468V18.698c0-.502.283-1.197.633-1.552l2.202-2.238z" class="cls-1"/></svg>