<svg xmlns="http://www.w3.org/2000/svg" preserveAspectRatio="xMidYMid" viewBox="0 0 21 16"><defs><style>.cls-1{fill:#000;fill-rule:evenodd}</style></defs><path d="M17.062 0H3.938C1.772 0 0 1.8 0 4v8c0 2.2 1.772 4 3.938 4h13.124C19.228 16 21 14.2 21 12V4c0-2.2-1.772-4-3.938-4zm2.625 12c0 .708-.274 1.376-.772 1.882a2.585 2.585 0 0 1-1.852.785H3.938a2.585 2.585 0 0 1-1.853-.785A2.667 2.667 0 0 1 1.313 12V4c0-.708.274-1.376.772-1.882a2.585 2.585 0 0 1 1.853-.785h13.124c.697 0 1.355.279 1.853.785s.772 1.174.772 1.882v8zM7.875 13.333L14.438 8 7.875 2.667v10.666z" class="cls-1"/></svg>