<svg viewBox="0 0 512 512" xmlns="http://www.w3.org/2000/svg"><path d="M121 212.7v-6.2c0-20.3.1-40.7-.1-61 0-4.2.8-6.1 5.4-8.1 16.6-7.4 31.9-17 44.5-30.7 16.5-17.9 27.7-38.4 33.4-61.9 2.8-11.4 4.8-23 6.8-34.6.7-3.7 1.9-5.6 6-5.5 18.2.2 36.3.2 54.5 0 4.8-.1 4.5 2.7 4.5 5.8.2 33.2.4 66.3.7 99.5v22.3h6c31.5 0 63 .1 94.5-.1 4.9 0 6.7 1.3 6.7 6.4-.2 22.7-.2 45.3 0 68 0 4.8-1.5 6.3-6.3 6.2-31.2-.2-62.3-.1-93.5-.1h-7c-.1 1.9-.3 3.5-.3 5.1.1 47.8.1 95.7.4 143.5.1 10.1.5 20.4 1.9 30.4 2.4 16.4 13 26.4 28 31.8 20 7.1 39.8 4.6 59-2.8 10.6-4.1 20.5-10.2 30.9-15.4.1.6.4 2 .4 3.4 0 23.5-.1 47 .1 70.5 0 3.9-1.9 5.3-5 6.8-14.4 6.9-29.1 12.6-44.3 17.5-22.6 7.2-45.8 6.8-68.9 5.9-34.6-1.4-64.2-14.7-87-40.9-11.8-13.5-19.9-29.4-20.2-47.9-.8-61.1-1.2-122.3-1.8-183.4-.1-6.5-.2-13 0-19.5.1-3.8-1.4-4.9-5-4.8-12.7.1-25.3.1-38 .1-1.8-.3-3.6-.3-6.3-.3z"/></svg>