<svg xmlns="http://www.w3.org/2000/svg" preserveAspectRatio="xMidYMid" viewBox="0 0 37 39.969"><defs><style>.cls-1{fill:#000;fill-rule:evenodd}</style></defs><path d="M33.636 13.301H25.9l10.595-10.5c.673-.667.673-1.667 0-2.334s-1.682-.667-2.355 0L20.686 13.801c-.504.5-.672 1.167-.336 1.833.168.667.841 1 1.513 1h11.773v16.668H3.363V16.634h11.773c.673 0 1.345-.333 1.514-1 .336-.666.168-1.333-.337-1.833L9.586 7.134c-.673-.667-1.682-.667-2.355 0-.672.667-.672 1.667 0 2.334l3.869 3.833H3.363c-1.85 0-3.363 1.5-3.363 3.334v16.667c0 1.833 1.513 3.333 3.363 3.333h6.728v3.334h16.818v-3.334h6.727c1.849 0 3.363-1.499 3.363-3.333V16.634c0-1.833-1.513-3.333-3.363-3.333z" class="cls-1"/></svg>