<svg xmlns="http://www.w3.org/2000/svg" preserveAspectRatio="xMidYMid" viewBox="0 0 29 24"><defs><style>.cls-1{fill:#000;fill-rule:evenodd}</style></defs><path d="M23.807 18.383H18.73c-.03 0-.06-.003-.09-.005l-.14-.005-.103.005c-.03.002-.059.005-.09.005h-1.203v-2.218l.606.598c.405.399.935.599 1.465.599.531 0 1.061-.2 1.465-.599a2.022 2.022 0 0 0 0-2.888L16.497 9.79a2.05 2.05 0 0 0-.316-.255c-.05-.034-.106-.057-.159-.085-.065-.035-.128-.074-.197-.103-.069-.028-.14-.044-.21-.064-.059-.018-.116-.04-.177-.052a2.128 2.128 0 0 0-.811 0c-.061.013-.117.035-.176.052-.071.02-.142.036-.21.064-.07.028-.133.068-.198.103-.053.028-.109.052-.159.085a2.05 2.05 0 0 0-.316.255l-4.143 4.085a2.022 2.022 0 0 0 0 2.888c.405.399.935.599 1.465.599s1.061-.2 1.465-.599l.606-.598v2.218H5.616C2.519 18.383 0 15.899 0 12.845c0-2.122 1.401-4.323 3.331-5.236l.294-.138v-.322c0-.065.004-.131.008-.197l.004-.082-.006-.107a1.715 1.715 0 0 1-.006-.125c0-1.97 1.627-3.574 3.625-3.574a3.724 3.724 0 0 1 .595.052c.138.023.275.052.409.09l.055.014c.147.045.291.101.432.164.037.016.073.034.109.052a3.558 3.558 0 0 1 2.025 3.202c0 .283.231.511.518.511a.514.514 0 0 0 .518-.511 4.561 4.561 0 0 0-1.657-3.508C11.738 1.215 14.183 0 16.615 0c4.011 0 7.342 3.133 7.69 7.091a10.152 10.152 0 0 0-2.115.063.512.512 0 0 0-.434.582.516.516 0 0 0 .59.428c1.153-.172 2.355-.011 2.426-.001 2.41.453 4.228 2.643 4.228 5.099 0 2.824-2.33 5.121-5.193 5.121zM10.875 16.34a1.04 1.04 0 0 1-.733-.299 1.012 1.012 0 0 1 0-1.444l4.143-4.084a.972.972 0 0 1 .158-.128c.026-.017.054-.029.081-.044.032-.017.063-.036.097-.05.035-.014.071-.023.106-.033.029-.008.057-.02.087-.025.135-.027.272-.027.406 0 .03.006.058.017.087.025.036.01.072.019.107.033.034.014.064.032.096.05.028.015.056.027.082.044.057.037.11.08.159.128l4.142 4.084a1.012 1.012 0 0 1 0 1.444c-.202.2-.467.299-.732.299-.265 0-.53-.099-.732-.299l-2.375-2.342v9.28A1.03 1.03 0 0 1 15.018 24a1.03 1.03 0 0 1-1.036-1.021v-9.28l-2.375 2.342c-.202.2-.467.299-.732.299z" class="cls-1"/></svg>