<svg xmlns="http://www.w3.org/2000/svg" preserveAspectRatio="xMidYMid" viewBox="0 0 22 14"><defs><style>.cls-1{fill:#000;fill-rule:evenodd}</style></defs><path d="M20.084 7.066c.076-.38.117-.773.117-1.175C20.201 2.637 17.579 0 14.345 0A5.855 5.855 0 0 0 8.98 3.528a4.39 4.39 0 0 0-2.416-.723c-2.346 0-4.262 1.832-4.421 4.15A3.69 3.69 0 0 0 0 10.309C0 12.347 1.643 14 3.669 14H8.97c.26 0 .273-.29.273-.29v-2.368a.369.369 0 0 0-.366-.368H7.874c-.201 0-.268-.133-.148-.296l3.056-4.15c.12-.162.316-.162.436 0l3.056 4.15c.119.163.053.296-.148.296h-1.003a.368.368 0 0 0-.365.368v2.373s.015.285.284.285h5.289C20.357 14 22 12.347 22 10.309c0-1.4-.775-2.617-1.916-3.243z" class="cls-1"/></svg>