<svg xmlns="http://www.w3.org/2000/svg" preserveAspectRatio="xMidYMid" viewBox="0 0 15 15"><defs><style>.cls-1{fill:#000;fill-rule:evenodd}</style></defs><path d="M7.5 0C3.364 0 0 3.365 0 7.5S3.364 15 7.5 15c4.135 0 7.5-3.365 7.5-7.5S11.636 0 7.5 0zm4.325 11.633v-.295c0-1.023-1.182-1.396-1.815-1.667a29.506 29.506 0 0 1-1.103-.522.605.605 0 0 1-.302-.434l-.049-.485c.34-.316.645-.755.696-1.245h.077c.12 0 .233-.09.251-.2l.12-.741c.016-.159-.133-.255-.254-.255a4.316 4.316 0 0 0 .055-.513c.012-.35-.046-.656-.145-.827a1.96 1.96 0 0 0-.461-.672c-.586-.554-1.265-.77-1.845-.325-.394-.068-.863.113-1.202.509a1.59 1.59 0 0 0-.349.708 2.241 2.241 0 0 0-.08.535c-.008.222.013.425.054.588a.25.25 0 0 0-.231.252l.12.741c.018.111.131.2.251.2h.069c.109.53.39.965.702 1.269l-.047.468a.608.608 0 0 1-.302.435c-.428.209-.85.41-1.103.514-.595.245-1.815.644-1.815 1.667v.231a5.96 5.96 0 0 1-1.605-4.068 5.995 5.995 0 0 1 5.989-5.989 5.996 5.996 0 0 1 5.99 5.989 5.971 5.971 0 0 1-1.666 4.132z" class="cls-1"/></svg>