<svg xmlns="http://www.w3.org/2000/svg" preserveAspectRatio="xMidYMid" viewBox="0 0 24.72 23.156"><defs><style>.cls-1{fill:#000;fill-rule:evenodd}</style></defs><path d="M23.731 16.725h-2.824v-5.083h1.821V1.916H9.042v1.501H7.036V.954c0-.531.45-.961 1.003-.961h15.692c.554 0 1.002.43 1.002.961v14.809c0 .531-.448.962-1.002.962zm-6.037-9.328v14.809c0 .531-.45.962-1.003.962H.999c-.554 0-1.003-.431-1.003-.962V7.397c0-.531.449-.961 1.003-.961h15.692c.553 0 1.003.43 1.003.961zm-2.006.962H2.002v9.726h13.686V8.359z" class="cls-1"/></svg>