<svg viewBox="0 0 56.693 56.693" xmlns="http://www.w3.org/2000/svg"><path d="M3.59 29.355c0 9.742 5.663 18.17 13.878 22.156L5.723 19.332A24.51 24.51 0 0 0 3.59 29.355zm41.246-1.244c0-3.043-1.096-5.152-2.031-6.791-1.248-2.03-2.416-3.745-2.416-5.776 0-2.264 1.711-4.369 4.135-4.369.105 0 .211.014.316.021A24.527 24.527 0 0 0 28.215 4.73c-8.605 0-16.172 4.416-20.573 11.1.579.018 1.121.031 1.583.031 2.577 0 6.563-.316 6.563-.316 1.324-.074 1.481 1.871.154 2.031 0 0-1.332.154-2.817.234l8.968 26.668 5.389-16.158-3.838-10.51a47.748 47.748 0 0 1-2.582-.234c-1.328-.08-1.17-2.105.158-2.031 0 0 4.064.316 6.482.316 2.574 0 6.566-.316 6.566-.316 1.322-.074 1.48 1.871.152 2.031 0 0-1.33.154-2.816.234l8.9 26.465 2.457-8.203c1.248-3.201 1.875-5.851 1.875-7.961zm-16.19 3.399l-7.389 21.469c2.205.648 4.535 1 6.957 1 2.865 0 5.617-.496 8.176-1.398a2.137 2.137 0 0 1-.176-.336L28.646 31.51zm21.172-13.971c.109.787.17 1.627.17 2.535 0 2.497-.469 5.305-1.875 8.819l-7.52 21.742c7.318-4.266 12.24-12.195 12.24-21.279a24.508 24.508 0 0 0-3.015-11.817z"/></svg>