<svg xmlns="http://www.w3.org/2000/svg" preserveAspectRatio="xMidYMid" viewBox="0 0 16 16"><defs><style>.cls-1{fill:#000;fill-rule:evenodd}</style></defs><path d="M8.002 16.004c-4.414 0-8.006-3.591-8.006-8.006S3.588-.008 8.002-.008s8.006 3.591 8.006 8.006-3.592 8.006-8.006 8.006zm4.39-3.278c.082-.027.221-.193.303-.248.082-.055.22-.276.248-.386.027-.11.081-.303.11-.413.027-.11.055-.331.055-.414 0-.082-.028-.193-.026-.192l-.221.413s-.331.138-.359.248c-.027.111-.055.276-.055.276s-.137.303-.166.413c-.027.11.029.331.111.303zM2.165 4.098c-.15-.277 0-.303 0-.413 0 0-.02-.008-.048-.011A7.252 7.252 0 0 0 .697 7.82c.048-.116.109-.399.09-.495-.028-.138.082-.469.082-.635 0-.166.276-.496.331-.634.055-.139.303-.496.441-.717.137-.221-.028-.138-.166-.056-.137.084.083-.22.166-.275.082-.055.551-.386.551-.386s.165-.165-.027-.524zm.303 7.058a2.154 2.154 0 0 1-.193-.359c-.055-.139-.027-.139-.248-.386-.22-.248-.165-.193-.331-.276-.165-.083-.221-.164-.358-.22a.93.93 0 0 1-.304-.193.396.396 0 0 0-.158-.099A7.314 7.314 0 0 0 3.02 13.34c.111.03.146-.034.248-.034.109 0 .275-.139.275-.139l-.111-.33.111-.414.138-.385s0-.276-.138-.304c-.138-.027-.386-.275-.469-.275a.678.678 0 0 1-.303-.11c-.083-.056-.247-.11-.303-.193zm.583-8.528a1.156 1.156 0 0 0-.033.092c-.027.111.194.028.194.028l.248.11.303-.11s.084-.166.276-.303c.193-.139.166-.167.248-.277.083-.109 0 .001.358-.385.359-.387.551-.386.551-.386s.105-.113.19-.223a7.335 7.335 0 0 0-2.335 1.454zM5.859 6.33c-.082.056-.386.221-.468.358a1.519 1.519 0 0 0-.193.442c-.027.138-.027.248-.027.44 0 .193-.028.304 0 .47.026.165.302.578.412.717.111.138.249.303.387.385.137.083.331.248.331.248s.109.165.329.083c.222-.083.441-.083.635-.193s.497-.249.497-.083c0 .165.109.276.275.221.165-.056.441-.193.413 0-.027.193.055.441.055.552 0 .109-.027.22.055.303.083.082.304.22.304.303 0 .082.027.358.082.469.056.11.11.275.055.385-.055.111-.166.414-.166.414s-.058.248-.03.33a.8.8 0 0 0 .216.331c.138.138.102.304.185.414.083.11.167.441.167.441l.012.276v.247s.608-.082.719-.11c.11-.027.541-.221.65-.331.111-.11.089-.193.226-.303.138-.11.389-.304.389-.304l-.027-.413.332-.44.249-.249s.22-.303.193-.413c-.027-.11-.083-.662-.083-.662s.111-.247.194-.358c.082-.111.083-.248.248-.386.165-.137.275-.303.358-.413.082-.11.248-.331.303-.413.055-.083.111-.331.111-.331l-.498.083c-.165-.276-.634-.882-.716-1.02-.083-.138-.165-.414-.193-.524-.028-.11-.166-.414-.194-.496-.027-.083-.219-.331-.274-.414-.056-.082-.249-.138-.359-.221-.111-.082-.799-.22-.799-.22s-.211-.133-.276-.083c-.275.221-.91.083-1.046.027-.139-.056-.221-.137-.221-.221 0-.083-.124-.482-.124-.482s-.269.048-.352.048c-.083 0-.299-.087-.299-.087s-.275.026-.385.082c-.109.055-.33.137-.412.165-.083.027-.303.055-.303.055-.248-.111-.44.165-.496.275-.055.11-.165.165-.165.275 0 .111-.194.276-.276.331zm1.226-3.692l-.211-.304-.254.138v.492l-.265-.106-.11.248.11.165.265-.292v.292l.574-.11.215-.165-.324-.358zm4.79-.834c-.115.064-.315.214-.392.136-.083-.083-.276-.202-.276-.202.166-.111-.331-.295-.331-.295l-.578.047h-.413c-.083 0-.249-.06-.387-.06-.137 0-.468.126-.579.154-.109.027-.358.168-.468.168-.11 0-.276.208-.276.208s-.192.353-.026.298c.164-.056.385-.059.412.025.028.082.082.218.11.301.028.082.414.109.414.109s.055-.138.137-.248c.083-.111.165-.248.165-.248s.138.275.166.358c.027.083-.055.331-.055.331s-.303.192-.386.192c-.083 0-.552-.414-.552-.414-.166.056-.303.139-.303.139-.193.193-.386.358-.386.358s-.167.056-.277.138c-.11.083-.348.1-.414.193-.137.193.053.331.053.331l-.169.22-.119.083-.402.083-.242.041c.027.082-.026.345-.026.345v.467s.398.11.481.11c.082 0 .287.028.398-.083.109-.11.288-.358.343-.44a.523.523 0 0 1 .296-.221c.164-.054.187-.137.27-.164.083-.028.408-.084.408-.084s.191.139.273.194c.039.026-.051.112.295.196v.218l.366-.028-.166-.22-.028-.008-.319-.323-.024-.248s.34.193.45.248c.11.055.345.22.345.22l.163.385.221.269c-.074-.092-.257-.352.028-.352 0 0 .262.028.345 0 .083-.027.158-.054.267-.109.11-.056-.043-.248.066-.386a.701.701 0 0 1 .337-.221 5.14 5.14 0 0 0 .361-.165l.305.055c-.137.11-.302.275-.192.248.11-.027.359.111.469.193.11.082.027.276.027.276s-.302-.028-.495-.056c-.193-.027-.497.028-.497.028l-.247.137s-.166.056-.138.193c.027.138.138.304.248.441.109.139.192.304.274.249.084-.056.36-.221.36-.221s-.056.193-.028.331c.028.137.028.33.028.33s-.276 0-.193.056c.081.054.199.263.247.331.276.385.855 1.24.91 1.35.054.111.029.278.11.358.165.166.496 0 .578-.055.083-.054.359-.193.441-.275.084-.083.056-.056.221-.165.166-.111.276-.194.193-.276-.082-.083-.247-.386-.247-.386-.249.055-.497-.083-.497-.165 0-.083-.22-.413-.22-.413s.027-.055.22.055c.194.11.358.331.524.331.165 0 .247.055.441.165.193.11.276.248.386.303.11.055.275.276.275.276s.166.386.193.497c.019.072.097.242.148.372.009-.138.021-.275.021-.415a7.31 7.31 0 0 0-3.441-6.194zM6.62 2.979v-.015l.009.004-.009.011z" class="cls-1"/></svg>